<svg xmlns="http://www.w3.org/2000/svg" xmlns:xlink="http://www.w3.org/1999/xlink" width="500" zoomAndPan="magnify" viewBox="0 0 375 112.499997" height="150" preserveAspectRatio="xMidYMid meet" version="1.0"><defs><g/></defs><g fill="#e5dff1" fill-opacity="1"><g transform="translate(26.842803, 36.307635)"><g><path d="M 5.640625 0.328125 C 4.578125 0.328125 3.753906 0.0390625 3.171875 -0.53125 C 2.597656 -1.113281 2.3125 -1.945312 2.3125 -3.03125 L 2.3125 -22.125 C 2.3125 -23.207031 2.597656 -24.035156 3.171875 -24.609375 C 3.753906 -25.191406 4.585938 -25.484375 5.671875 -25.484375 L 14.578125 -25.484375 C 17.460938 -25.484375 19.691406 -24.78125 21.265625 -23.375 C 22.847656 -21.96875 23.640625 -20.007812 23.640625 -17.5 C 23.640625 -15.59375 23.164062 -13.992188 22.21875 -12.703125 C 21.269531 -11.421875 19.890625 -10.523438 18.078125 -10.015625 C 19.429688 -9.648438 20.515625 -8.722656 21.328125 -7.234375 L 23.140625 -3.984375 C 23.523438 -3.253906 23.695312 -2.5625 23.65625 -1.90625 C 23.625 -1.257812 23.363281 -0.722656 22.875 -0.296875 C 22.394531 0.117188 21.6875 0.328125 20.75 0.328125 C 19.8125 0.328125 19.046875 0.140625 18.453125 -0.234375 C 17.867188 -0.609375 17.347656 -1.21875 16.890625 -2.0625 L 13.59375 -8.09375 C 13.300781 -8.625 12.929688 -8.992188 12.484375 -9.203125 C 12.046875 -9.410156 11.535156 -9.515625 10.953125 -9.515625 L 8.96875 -9.515625 L 8.96875 -3.03125 C 8.96875 -1.945312 8.679688 -1.113281 8.109375 -0.53125 C 7.546875 0.0390625 6.722656 0.328125 5.640625 0.328125 Z M 8.96875 -14.203125 L 13.375 -14.203125 C 16 -14.203125 17.3125 -15.238281 17.3125 -17.3125 C 17.3125 -19.363281 16 -20.390625 13.375 -20.390625 L 8.96875 -20.390625 Z M 8.96875 -14.203125 "/></g></g></g><g fill="#e5dff1" fill-opacity="1"><g transform="translate(52.362927, 36.307635)"><g><path d="M 11.5625 0.390625 C 9.394531 0.390625 7.519531 0.015625 5.9375 -0.734375 C 4.363281 -1.492188 3.15625 -2.570312 2.3125 -3.96875 C 1.46875 -5.375 1.046875 -7.03125 1.046875 -8.9375 C 1.046875 -10.738281 1.445312 -12.335938 2.25 -13.734375 C 3.0625 -15.140625 4.171875 -16.234375 5.578125 -17.015625 C 6.992188 -17.796875 8.601562 -18.1875 10.40625 -18.1875 C 12.195312 -18.1875 13.75 -17.8125 15.0625 -17.0625 C 16.375 -16.3125 17.382812 -15.242188 18.09375 -13.859375 C 18.800781 -12.472656 19.15625 -10.851562 19.15625 -9 C 19.15625 -8.0625 18.601562 -7.59375 17.5 -7.59375 L 7.1875 -7.59375 C 7.40625 -6.4375 7.890625 -5.601562 8.640625 -5.09375 C 9.390625 -4.59375 10.425781 -4.34375 11.75 -4.34375 C 12.257812 -4.34375 12.863281 -4.398438 13.5625 -4.515625 C 14.257812 -4.640625 14.921875 -4.832031 15.546875 -5.09375 C 16.316406 -5.382812 16.96875 -5.390625 17.5 -5.109375 C 18.03125 -4.835938 18.382812 -4.414062 18.5625 -3.84375 C 18.75 -3.28125 18.726562 -2.703125 18.5 -2.109375 C 18.269531 -1.523438 17.816406 -1.078125 17.140625 -0.765625 C 16.296875 -0.347656 15.394531 -0.0507812 14.4375 0.125 C 13.488281 0.300781 12.53125 0.390625 11.5625 0.390625 Z M 10.703125 -14.03125 C 9.734375 -14.03125 8.941406 -13.738281 8.328125 -13.15625 C 7.710938 -12.582031 7.320312 -11.738281 7.15625 -10.625 L 13.890625 -10.625 C 13.816406 -11.757812 13.507812 -12.609375 12.96875 -13.171875 C 12.425781 -13.742188 11.671875 -14.03125 10.703125 -14.03125 Z M 10.703125 -14.03125 "/></g></g></g><g fill="#e5dff1" fill-opacity="1"><g transform="translate(72.424774, 36.307635)"><g><path d="M 8.96875 0.390625 C 7.882812 0.390625 6.796875 0.304688 5.703125 0.140625 C 4.617188 -0.0234375 3.632812 -0.300781 2.75 -0.6875 C 2 -0.976562 1.507812 -1.398438 1.28125 -1.953125 C 1.050781 -2.503906 1.023438 -3.054688 1.203125 -3.609375 C 1.390625 -4.171875 1.722656 -4.59375 2.203125 -4.875 C 2.679688 -5.164062 3.257812 -5.191406 3.9375 -4.953125 C 4.925781 -4.585938 5.828125 -4.328125 6.640625 -4.171875 C 7.460938 -4.015625 8.25 -3.9375 9 -3.9375 C 9.894531 -3.9375 10.535156 -4.0625 10.921875 -4.3125 C 11.304688 -4.570312 11.5 -4.90625 11.5 -5.3125 C 11.5 -5.675781 11.367188 -5.945312 11.109375 -6.125 C 10.859375 -6.3125 10.503906 -6.453125 10.046875 -6.546875 L 6.03125 -7.1875 C 4.539062 -7.4375 3.382812 -7.984375 2.5625 -8.828125 C 1.75 -9.671875 1.34375 -10.765625 1.34375 -12.109375 C 1.34375 -13.367188 1.691406 -14.445312 2.390625 -15.34375 C 3.085938 -16.25 4.0625 -16.945312 5.3125 -17.4375 C 6.5625 -17.9375 8 -18.1875 9.625 -18.1875 C 10.707031 -18.1875 11.691406 -18.101562 12.578125 -17.9375 C 13.472656 -17.769531 14.34375 -17.492188 15.1875 -17.109375 C 15.832031 -16.835938 16.242188 -16.425781 16.421875 -15.875 C 16.609375 -15.320312 16.597656 -14.769531 16.390625 -14.21875 C 16.191406 -13.675781 15.84375 -13.265625 15.34375 -12.984375 C 14.851562 -12.710938 14.257812 -12.710938 13.5625 -12.984375 C 12.757812 -13.296875 12.050781 -13.523438 11.4375 -13.671875 C 10.820312 -13.816406 10.25 -13.890625 9.71875 -13.890625 C 8.738281 -13.890625 8.039062 -13.75 7.625 -13.46875 C 7.21875 -13.1875 7.015625 -12.851562 7.015625 -12.46875 C 7.015625 -11.820312 7.460938 -11.425781 8.359375 -11.28125 L 12.359375 -10.59375 C 13.898438 -10.351562 15.085938 -9.828125 15.921875 -9.015625 C 16.753906 -8.210938 17.171875 -7.125 17.171875 -5.75 C 17.171875 -3.789062 16.421875 -2.273438 14.921875 -1.203125 C 13.429688 -0.140625 11.445312 0.390625 8.96875 0.390625 Z M 8.96875 0.390625 "/></g></g></g><g fill="#e5dff1" fill-opacity="1"><g transform="translate(90.35393, 36.307635)"><g><path d="M 11.5625 0.390625 C 9.394531 0.390625 7.519531 0.015625 5.9375 -0.734375 C 4.363281 -1.492188 3.15625 -2.570312 2.3125 -3.96875 C 1.46875 -5.375 1.046875 -7.03125 1.046875 -8.9375 C 1.046875 -10.738281 1.445312 -12.335938 2.25 -13.734375 C 3.0625 -15.140625 4.171875 -16.234375 5.578125 -17.015625 C 6.992188 -17.796875 8.601562 -18.1875 10.40625 -18.1875 C 12.195312 -18.1875 13.75 -17.8125 15.0625 -17.0625 C 16.375 -16.3125 17.382812 -15.242188 18.09375 -13.859375 C 18.800781 -12.472656 19.15625 -10.851562 19.15625 -9 C 19.15625 -8.0625 18.601562 -7.59375 17.5 -7.59375 L 7.1875 -7.59375 C 7.40625 -6.4375 7.890625 -5.601562 8.640625 -5.09375 C 9.390625 -4.59375 10.425781 -4.34375 11.75 -4.34375 C 12.257812 -4.34375 12.863281 -4.398438 13.5625 -4.515625 C 14.257812 -4.640625 14.921875 -4.832031 15.546875 -5.09375 C 16.316406 -5.382812 16.96875 -5.390625 17.5 -5.109375 C 18.03125 -4.835938 18.382812 -4.414062 18.5625 -3.84375 C 18.75 -3.28125 18.726562 -2.703125 18.5 -2.109375 C 18.269531 -1.523438 17.816406 -1.078125 17.140625 -0.765625 C 16.296875 -0.347656 15.394531 -0.0507812 14.4375 0.125 C 13.488281 0.300781 12.53125 0.390625 11.5625 0.390625 Z M 10.703125 -14.03125 C 9.734375 -14.03125 8.941406 -13.738281 8.328125 -13.15625 C 7.710938 -12.582031 7.320312 -11.738281 7.15625 -10.625 L 13.890625 -10.625 C 13.816406 -11.757812 13.507812 -12.609375 12.96875 -13.171875 C 12.425781 -13.742188 11.671875 -14.03125 10.703125 -14.03125 Z M 10.703125 -14.03125 "/></g></g></g><g fill="#e5dff1" fill-opacity="1"><g transform="translate(110.415777, 36.307635)"><g><path d="M 8.0625 0.390625 C 6.6875 0.390625 5.472656 0.140625 4.421875 -0.359375 C 3.378906 -0.867188 2.5625 -1.5625 1.96875 -2.4375 C 1.375 -3.320312 1.078125 -4.328125 1.078125 -5.453125 C 1.078125 -6.734375 1.414062 -7.753906 2.09375 -8.515625 C 2.769531 -9.273438 3.851562 -9.816406 5.34375 -10.140625 C 6.84375 -10.460938 8.832031 -10.625 11.3125 -10.625 L 12.6875 -10.625 L 12.6875 -11.140625 C 12.6875 -12.003906 12.460938 -12.613281 12.015625 -12.96875 C 11.578125 -13.332031 10.8125 -13.515625 9.71875 -13.515625 C 9.125 -13.515625 8.46875 -13.445312 7.75 -13.3125 C 7.039062 -13.1875 6.238281 -12.957031 5.34375 -12.625 C 4.550781 -12.332031 3.890625 -12.34375 3.359375 -12.65625 C 2.828125 -12.96875 2.484375 -13.414062 2.328125 -14 C 2.171875 -14.59375 2.226562 -15.1875 2.5 -15.78125 C 2.78125 -16.375 3.320312 -16.816406 4.125 -17.109375 C 5.28125 -17.515625 6.34375 -17.796875 7.3125 -17.953125 C 8.289062 -18.109375 9.191406 -18.1875 10.015625 -18.1875 C 12.984375 -18.1875 15.179688 -17.546875 16.609375 -16.265625 C 18.046875 -14.992188 18.765625 -12.984375 18.765625 -10.234375 L 18.765625 -2.921875 C 18.765625 -0.753906 17.773438 0.328125 15.796875 0.328125 C 13.921875 0.328125 12.921875 -0.632812 12.796875 -2.5625 C 12.460938 -1.644531 11.882812 -0.921875 11.0625 -0.390625 C 10.238281 0.128906 9.238281 0.390625 8.0625 0.390625 Z M 9.515625 -3.796875 C 10.398438 -3.796875 11.148438 -4.082031 11.765625 -4.65625 C 12.378906 -5.238281 12.6875 -6 12.6875 -6.9375 L 12.6875 -7.59375 L 11.3125 -7.59375 C 9.894531 -7.59375 8.851562 -7.441406 8.1875 -7.140625 C 7.519531 -6.835938 7.1875 -6.363281 7.1875 -5.71875 C 7.1875 -5.15625 7.382812 -4.691406 7.78125 -4.328125 C 8.1875 -3.972656 8.765625 -3.796875 9.515625 -3.796875 Z M 9.515625 -3.796875 "/></g></g></g><g fill="#e5dff1" fill-opacity="1"><g transform="translate(130.947542, 36.307635)"><g><path d="M 5.171875 0.328125 C 2.972656 0.328125 1.875 -0.753906 1.875 -2.921875 L 1.875 -14.890625 C 1.875 -17.035156 2.925781 -18.109375 5.03125 -18.109375 C 6.019531 -18.109375 6.785156 -17.832031 7.328125 -17.28125 C 7.867188 -16.726562 8.140625 -15.929688 8.140625 -14.890625 L 8.140625 -14.78125 C 8.546875 -15.820312 9.207031 -16.644531 10.125 -17.25 C 11.039062 -17.851562 12.125 -18.164062 13.375 -18.1875 C 14.070312 -18.207031 14.59375 -18.03125 14.9375 -17.65625 C 15.289062 -17.289062 15.484375 -16.597656 15.515625 -15.578125 C 15.515625 -14.710938 15.332031 -14.023438 14.96875 -13.515625 C 14.601562 -13.015625 13.914062 -12.71875 12.90625 -12.625 L 12.078125 -12.546875 C 10.796875 -12.421875 9.863281 -12.0625 9.28125 -11.46875 C 8.707031 -10.882812 8.421875 -10.015625 8.421875 -8.859375 L 8.421875 -2.921875 C 8.421875 -0.753906 7.335938 0.328125 5.171875 0.328125 Z M 5.171875 0.328125 "/></g></g></g><g fill="#e5dff1" fill-opacity="1"><g transform="translate(146.635545, 36.307635)"><g><path d="M 10.953125 0.390625 C 8.953125 0.390625 7.207031 0.0195312 5.71875 -0.71875 C 4.238281 -1.46875 3.085938 -2.539062 2.265625 -3.9375 C 1.453125 -5.332031 1.046875 -7 1.046875 -8.9375 C 1.046875 -10.863281 1.453125 -12.519531 2.265625 -13.90625 C 3.085938 -15.289062 4.238281 -16.347656 5.71875 -17.078125 C 7.207031 -17.816406 8.953125 -18.1875 10.953125 -18.1875 C 11.648438 -18.1875 12.382812 -18.117188 13.15625 -17.984375 C 13.925781 -17.847656 14.722656 -17.601562 15.546875 -17.25 C 16.097656 -17.03125 16.492188 -16.695312 16.734375 -16.25 C 16.984375 -15.800781 17.085938 -15.320312 17.046875 -14.8125 C 17.015625 -14.3125 16.867188 -13.851562 16.609375 -13.4375 C 16.359375 -13.03125 16.007812 -12.753906 15.5625 -12.609375 C 15.113281 -12.472656 14.613281 -12.535156 14.0625 -12.796875 C 13.269531 -13.160156 12.460938 -13.34375 11.640625 -13.34375 C 10.359375 -13.34375 9.367188 -12.957031 8.671875 -12.1875 C 7.972656 -11.414062 7.625 -10.332031 7.625 -8.9375 C 7.625 -7.507812 7.972656 -6.40625 8.671875 -5.625 C 9.367188 -4.84375 10.359375 -4.453125 11.640625 -4.453125 C 12.023438 -4.453125 12.421875 -4.492188 12.828125 -4.578125 C 13.242188 -4.660156 13.65625 -4.796875 14.0625 -4.984375 C 14.644531 -5.253906 15.144531 -5.3125 15.5625 -5.15625 C 15.988281 -5 16.328125 -4.71875 16.578125 -4.3125 C 16.828125 -3.914062 16.96875 -3.460938 17 -2.953125 C 17.039062 -2.453125 16.941406 -1.976562 16.703125 -1.53125 C 16.460938 -1.09375 16.050781 -0.765625 15.46875 -0.546875 C 14.65625 -0.179688 13.875 0.0625 13.125 0.1875 C 12.375 0.320312 11.648438 0.390625 10.953125 0.390625 Z M 10.953125 0.390625 "/></g></g></g><g fill="#e5dff1" fill-opacity="1"><g transform="translate(164.130919, 36.307635)"><g><path d="M 5.0625 0.328125 C 4.019531 0.328125 3.226562 0.0507812 2.6875 -0.5 C 2.144531 -1.0625 1.875 -1.867188 1.875 -2.921875 L 1.875 -22.5625 C 1.875 -24.726562 2.9375 -25.8125 5.0625 -25.8125 C 6.09375 -25.8125 6.890625 -25.535156 7.453125 -24.984375 C 8.023438 -24.429688 8.3125 -23.625 8.3125 -22.5625 L 8.3125 -15.578125 C 9.59375 -17.316406 11.453125 -18.1875 13.890625 -18.1875 C 16.003906 -18.1875 17.570312 -17.554688 18.59375 -16.296875 C 19.625 -15.046875 20.140625 -13.117188 20.140625 -10.515625 L 20.140625 -2.921875 C 20.140625 -1.867188 19.859375 -1.0625 19.296875 -0.5 C 18.742188 0.0507812 17.953125 0.328125 16.921875 0.328125 C 15.878906 0.328125 15.082031 0.0507812 14.53125 -0.5 C 13.976562 -1.0625 13.703125 -1.867188 13.703125 -2.921875 L 13.703125 -10.265625 C 13.703125 -11.347656 13.515625 -12.117188 13.140625 -12.578125 C 12.765625 -13.035156 12.21875 -13.265625 11.5 -13.265625 C 10.53125 -13.265625 9.753906 -12.957031 9.171875 -12.34375 C 8.597656 -11.726562 8.3125 -10.90625 8.3125 -9.875 L 8.3125 -2.921875 C 8.3125 -0.753906 7.226562 0.328125 5.0625 0.328125 Z M 5.0625 0.328125 "/></g></g></g><g fill="#e5dff1" fill-opacity="1"><g transform="translate(186.036286, 36.307635)"><g/></g></g><g fill="#e5dff1" fill-opacity="1"><g transform="translate(196.37446, 36.307635)"><g><path d="M 15.1875 0.390625 C 12.363281 0.390625 9.9375 -0.148438 7.90625 -1.234375 C 5.882812 -2.316406 4.335938 -3.84375 3.265625 -5.8125 C 2.191406 -7.789062 1.65625 -10.109375 1.65625 -12.765625 C 1.65625 -15.410156 2.191406 -17.71875 3.265625 -19.6875 C 4.335938 -21.65625 5.882812 -23.179688 7.90625 -24.265625 C 9.9375 -25.347656 12.363281 -25.890625 15.1875 -25.890625 C 16.289062 -25.890625 17.4375 -25.757812 18.625 -25.5 C 19.820312 -25.25 20.878906 -24.875 21.796875 -24.375 C 22.472656 -24.007812 22.941406 -23.546875 23.203125 -22.984375 C 23.472656 -22.429688 23.570312 -21.863281 23.5 -21.28125 C 23.425781 -20.707031 23.210938 -20.191406 22.859375 -19.734375 C 22.515625 -19.273438 22.078125 -18.96875 21.546875 -18.8125 C 21.015625 -18.65625 20.4375 -18.734375 19.8125 -19.046875 C 18.394531 -19.753906 16.9375 -20.109375 15.4375 -20.109375 C 13.195312 -20.109375 11.507812 -19.472656 10.375 -18.203125 C 9.238281 -16.941406 8.671875 -15.128906 8.671875 -12.765625 C 8.671875 -10.378906 9.238281 -8.550781 10.375 -7.28125 C 11.507812 -6.019531 13.195312 -5.390625 15.4375 -5.390625 C 16.0625 -5.390625 16.734375 -5.46875 17.453125 -5.625 C 18.179688 -5.78125 18.894531 -6.023438 19.59375 -6.359375 C 20.320312 -6.671875 20.96875 -6.753906 21.53125 -6.609375 C 22.09375 -6.472656 22.554688 -6.1875 22.921875 -5.75 C 23.285156 -5.3125 23.507812 -4.8125 23.59375 -4.25 C 23.675781 -3.6875 23.597656 -3.125 23.359375 -2.5625 C 23.117188 -2.007812 22.671875 -1.566406 22.015625 -1.234375 C 21.171875 -0.722656 20.128906 -0.320312 18.890625 -0.03125 C 17.648438 0.25 16.414062 0.390625 15.1875 0.390625 Z M 15.1875 0.390625 "/></g></g></g><g fill="#e5dff1" fill-opacity="1"><g transform="translate(221.243932, 36.307635)"><g><path d="M 8.0625 0.390625 C 6.6875 0.390625 5.472656 0.140625 4.421875 -0.359375 C 3.378906 -0.867188 2.5625 -1.5625 1.96875 -2.4375 C 1.375 -3.320312 1.078125 -4.328125 1.078125 -5.453125 C 1.078125 -6.734375 1.414062 -7.753906 2.09375 -8.515625 C 2.769531 -9.273438 3.851562 -9.816406 5.34375 -10.140625 C 6.84375 -10.460938 8.832031 -10.625 11.3125 -10.625 L 12.6875 -10.625 L 12.6875 -11.140625 C 12.6875 -12.003906 12.460938 -12.613281 12.015625 -12.96875 C 11.578125 -13.332031 10.8125 -13.515625 9.71875 -13.515625 C 9.125 -13.515625 8.46875 -13.445312 7.75 -13.3125 C 7.039062 -13.1875 6.238281 -12.957031 5.34375 -12.625 C 4.550781 -12.332031 3.890625 -12.34375 3.359375 -12.65625 C 2.828125 -12.96875 2.484375 -13.414062 2.328125 -14 C 2.171875 -14.59375 2.226562 -15.1875 2.5 -15.78125 C 2.78125 -16.375 3.320312 -16.816406 4.125 -17.109375 C 5.28125 -17.515625 6.34375 -17.796875 7.3125 -17.953125 C 8.289062 -18.109375 9.191406 -18.1875 10.015625 -18.1875 C 12.984375 -18.1875 15.179688 -17.546875 16.609375 -16.265625 C 18.046875 -14.992188 18.765625 -12.984375 18.765625 -10.234375 L 18.765625 -2.921875 C 18.765625 -0.753906 17.773438 0.328125 15.796875 0.328125 C 13.921875 0.328125 12.921875 -0.632812 12.796875 -2.5625 C 12.460938 -1.644531 11.882812 -0.921875 11.0625 -0.390625 C 10.238281 0.128906 9.238281 0.390625 8.0625 0.390625 Z M 9.515625 -3.796875 C 10.398438 -3.796875 11.148438 -4.082031 11.765625 -4.65625 C 12.378906 -5.238281 12.6875 -6 12.6875 -6.9375 L 12.6875 -7.59375 L 11.3125 -7.59375 C 9.894531 -7.59375 8.851562 -7.441406 8.1875 -7.140625 C 7.519531 -6.835938 7.1875 -6.363281 7.1875 -5.71875 C 7.1875 -5.15625 7.382812 -4.691406 7.78125 -4.328125 C 8.1875 -3.972656 8.765625 -3.796875 9.515625 -3.796875 Z M 9.515625 -3.796875 "/></g></g></g><g fill="#e5dff1" fill-opacity="1"><g transform="translate(241.775697, 36.307635)"><g><path d="M 5.0625 6.828125 C 2.9375 6.828125 1.875 5.742188 1.875 3.578125 L 1.875 -14.890625 C 1.875 -17.035156 2.925781 -18.109375 5.03125 -18.109375 C 6.925781 -18.109375 7.972656 -17.21875 8.171875 -15.4375 C 8.648438 -16.28125 9.378906 -16.945312 10.359375 -17.4375 C 11.335938 -17.9375 12.414062 -18.1875 13.59375 -18.1875 C 15.113281 -18.1875 16.457031 -17.8125 17.625 -17.0625 C 18.789062 -16.3125 19.707031 -15.242188 20.375 -13.859375 C 21.039062 -12.472656 21.375 -10.816406 21.375 -8.890625 C 21.375 -6.984375 21.046875 -5.332031 20.390625 -3.9375 C 19.742188 -2.539062 18.832031 -1.46875 17.65625 -0.71875 C 16.488281 0.0195312 15.132812 0.390625 13.59375 0.390625 C 12.488281 0.390625 11.457031 0.164062 10.5 -0.28125 C 9.550781 -0.738281 8.820312 -1.359375 8.3125 -2.140625 L 8.3125 3.578125 C 8.3125 4.640625 8.023438 5.445312 7.453125 6 C 6.890625 6.550781 6.09375 6.828125 5.0625 6.828125 Z M 11.5625 -4.34375 C 12.53125 -4.34375 13.328125 -4.703125 13.953125 -5.421875 C 14.578125 -6.148438 14.890625 -7.304688 14.890625 -8.890625 C 14.890625 -10.503906 14.578125 -11.664062 13.953125 -12.375 C 13.328125 -13.09375 12.53125 -13.453125 11.5625 -13.453125 C 10.582031 -13.453125 9.773438 -13.09375 9.140625 -12.375 C 8.515625 -11.664062 8.203125 -10.503906 8.203125 -8.890625 C 8.203125 -7.304688 8.515625 -6.148438 9.140625 -5.421875 C 9.773438 -4.703125 10.582031 -4.34375 11.5625 -4.34375 Z M 11.5625 -4.34375 "/></g></g></g><g fill="#e5dff1" fill-opacity="1"><g transform="translate(264.187118, 36.307635)"><g><path d="M 8.96875 0.390625 C 7.882812 0.390625 6.796875 0.304688 5.703125 0.140625 C 4.617188 -0.0234375 3.632812 -0.300781 2.75 -0.6875 C 2 -0.976562 1.507812 -1.398438 1.28125 -1.953125 C 1.050781 -2.503906 1.023438 -3.054688 1.203125 -3.609375 C 1.390625 -4.171875 1.722656 -4.59375 2.203125 -4.875 C 2.679688 -5.164062 3.257812 -5.191406 3.9375 -4.953125 C 4.925781 -4.585938 5.828125 -4.328125 6.640625 -4.171875 C 7.460938 -4.015625 8.25 -3.9375 9 -3.9375 C 9.894531 -3.9375 10.535156 -4.0625 10.921875 -4.3125 C 11.304688 -4.570312 11.5 -4.90625 11.5 -5.3125 C 11.5 -5.675781 11.367188 -5.945312 11.109375 -6.125 C 10.859375 -6.3125 10.503906 -6.453125 10.046875 -6.546875 L 6.03125 -7.1875 C 4.539062 -7.4375 3.382812 -7.984375 2.5625 -8.828125 C 1.75 -9.671875 1.34375 -10.765625 1.34375 -12.109375 C 1.34375 -13.367188 1.691406 -14.445312 2.390625 -15.34375 C 3.085938 -16.25 4.0625 -16.945312 5.3125 -17.4375 C 6.5625 -17.9375 8 -18.1875 9.625 -18.1875 C 10.707031 -18.1875 11.691406 -18.101562 12.578125 -17.9375 C 13.472656 -17.769531 14.34375 -17.492188 15.1875 -17.109375 C 15.832031 -16.835938 16.242188 -16.425781 16.421875 -15.875 C 16.609375 -15.320312 16.597656 -14.769531 16.390625 -14.21875 C 16.191406 -13.675781 15.84375 -13.265625 15.34375 -12.984375 C 14.851562 -12.710938 14.257812 -12.710938 13.5625 -12.984375 C 12.757812 -13.296875 12.050781 -13.523438 11.4375 -13.671875 C 10.820312 -13.816406 10.25 -13.890625 9.71875 -13.890625 C 8.738281 -13.890625 8.039062 -13.75 7.625 -13.46875 C 7.21875 -13.1875 7.015625 -12.851562 7.015625 -12.46875 C 7.015625 -11.820312 7.460938 -11.425781 8.359375 -11.28125 L 12.359375 -10.59375 C 13.898438 -10.351562 15.085938 -9.828125 15.921875 -9.015625 C 16.753906 -8.210938 17.171875 -7.125 17.171875 -5.75 C 17.171875 -3.789062 16.421875 -2.273438 14.921875 -1.203125 C 13.429688 -0.140625 11.445312 0.390625 8.96875 0.390625 Z M 8.96875 0.390625 "/></g></g></g><g fill="#e5dff1" fill-opacity="1"><g transform="translate(282.116287, 36.307635)"><g><path d="M 8.53125 0.390625 C 6.21875 0.390625 4.507812 -0.238281 3.40625 -1.5 C 2.3125 -2.769531 1.765625 -4.703125 1.765625 -7.296875 L 1.765625 -14.890625 C 1.765625 -17.035156 2.835938 -18.109375 4.984375 -18.109375 C 6.023438 -18.109375 6.820312 -17.832031 7.375 -17.28125 C 7.925781 -16.726562 8.203125 -15.929688 8.203125 -14.890625 L 8.203125 -7.125 C 8.203125 -5.382812 8.953125 -4.515625 10.453125 -4.515625 C 11.316406 -4.515625 12.023438 -4.828125 12.578125 -5.453125 C 13.128906 -6.085938 13.40625 -6.921875 13.40625 -7.953125 L 13.40625 -14.890625 C 13.40625 -17.035156 14.476562 -18.109375 16.625 -18.109375 C 17.664062 -18.109375 18.460938 -17.832031 19.015625 -17.28125 C 19.566406 -16.726562 19.84375 -15.929688 19.84375 -14.890625 L 19.84375 -2.921875 C 19.84375 -0.753906 18.804688 0.328125 16.734375 0.328125 C 14.878906 0.328125 13.832031 -0.539062 13.59375 -2.28125 C 12.4375 -0.5 10.75 0.390625 8.53125 0.390625 Z M 8.53125 0.390625 "/></g></g></g><g fill="#e5dff1" fill-opacity="1"><g transform="translate(303.84092, 36.307635)"><g><path d="M 8.640625 0.390625 C 6.304688 0.390625 4.59375 -0.226562 3.5 -1.46875 C 2.414062 -2.707031 1.875 -4.582031 1.875 -7.09375 L 1.875 -22.5625 C 1.875 -24.726562 2.9375 -25.8125 5.0625 -25.8125 C 6.09375 -25.8125 6.890625 -25.535156 7.453125 -24.984375 C 8.023438 -24.429688 8.3125 -23.625 8.3125 -22.5625 L 8.3125 -7.296875 C 8.3125 -6.410156 8.484375 -5.757812 8.828125 -5.34375 C 9.179688 -4.9375 9.640625 -4.734375 10.203125 -4.734375 C 10.367188 -4.734375 10.539062 -4.75 10.71875 -4.78125 C 10.894531 -4.820312 11.09375 -4.851562 11.3125 -4.875 C 11.75 -4.875 12.0625 -4.71875 12.25 -4.40625 C 12.445312 -4.09375 12.546875 -3.457031 12.546875 -2.5 C 12.546875 -1.65625 12.375 -1.019531 12.03125 -0.59375 C 11.695312 -0.175781 11.179688 0.09375 10.484375 0.21875 C 10.296875 0.269531 10.019531 0.3125 9.65625 0.34375 C 9.289062 0.375 8.953125 0.390625 8.640625 0.390625 Z M 8.640625 0.390625 "/></g></g></g><g fill="#e5dff1" fill-opacity="1"><g transform="translate(316.420248, 36.307635)"><g><path d="M 11.5625 0.390625 C 9.394531 0.390625 7.519531 0.015625 5.9375 -0.734375 C 4.363281 -1.492188 3.15625 -2.570312 2.3125 -3.96875 C 1.46875 -5.375 1.046875 -7.03125 1.046875 -8.9375 C 1.046875 -10.738281 1.445312 -12.335938 2.25 -13.734375 C 3.0625 -15.140625 4.171875 -16.234375 5.578125 -17.015625 C 6.992188 -17.796875 8.601562 -18.1875 10.40625 -18.1875 C 12.195312 -18.1875 13.75 -17.8125 15.0625 -17.0625 C 16.375 -16.3125 17.382812 -15.242188 18.09375 -13.859375 C 18.800781 -12.472656 19.15625 -10.851562 19.15625 -9 C 19.15625 -8.0625 18.601562 -7.59375 17.5 -7.59375 L 7.1875 -7.59375 C 7.40625 -6.4375 7.890625 -5.601562 8.640625 -5.09375 C 9.390625 -4.59375 10.425781 -4.34375 11.75 -4.34375 C 12.257812 -4.34375 12.863281 -4.398438 13.5625 -4.515625 C 14.257812 -4.640625 14.921875 -4.832031 15.546875 -5.09375 C 16.316406 -5.382812 16.96875 -5.390625 17.5 -5.109375 C 18.03125 -4.835938 18.382812 -4.414062 18.5625 -3.84375 C 18.75 -3.28125 18.726562 -2.703125 18.5 -2.109375 C 18.269531 -1.523438 17.816406 -1.078125 17.140625 -0.765625 C 16.296875 -0.347656 15.394531 -0.0507812 14.4375 0.125 C 13.488281 0.300781 12.53125 0.390625 11.5625 0.390625 Z M 10.703125 -14.03125 C 9.734375 -14.03125 8.941406 -13.738281 8.328125 -13.15625 C 7.710938 -12.582031 7.320312 -11.738281 7.15625 -10.625 L 13.890625 -10.625 C 13.816406 -11.757812 13.507812 -12.609375 12.96875 -13.171875 C 12.425781 -13.742188 11.671875 -14.03125 10.703125 -14.03125 Z M 10.703125 -14.03125 "/></g></g></g><g fill="#e5dff1" fill-opacity="1"><g transform="translate(336.470104, 36.307635)"><g/></g></g><g fill="#e5dff1" fill-opacity="1"><g transform="translate(26.842803, 79.199729)"><g><path d="M 5.640625 0.328125 C 4.578125 0.328125 3.753906 0.0390625 3.171875 -0.53125 C 2.597656 -1.113281 2.3125 -1.945312 2.3125 -3.03125 L 2.3125 -22.125 C 2.3125 -23.207031 2.597656 -24.035156 3.171875 -24.609375 C 3.753906 -25.191406 4.585938 -25.484375 5.671875 -25.484375 L 14.578125 -25.484375 C 17.460938 -25.484375 19.691406 -24.78125 21.265625 -23.375 C 22.847656 -21.96875 23.640625 -20.007812 23.640625 -17.5 C 23.640625 -15.59375 23.164062 -13.992188 22.21875 -12.703125 C 21.269531 -11.421875 19.890625 -10.523438 18.078125 -10.015625 C 19.429688 -9.648438 20.515625 -8.722656 21.328125 -7.234375 L 23.140625 -3.984375 C 23.523438 -3.253906 23.695312 -2.5625 23.65625 -1.90625 C 23.625 -1.257812 23.363281 -0.722656 22.875 -0.296875 C 22.394531 0.117188 21.6875 0.328125 20.75 0.328125 C 19.8125 0.328125 19.046875 0.140625 18.453125 -0.234375 C 17.867188 -0.609375 17.347656 -1.21875 16.890625 -2.0625 L 13.59375 -8.09375 C 13.300781 -8.625 12.929688 -8.992188 12.484375 -9.203125 C 12.046875 -9.410156 11.535156 -9.515625 10.953125 -9.515625 L 8.96875 -9.515625 L 8.96875 -3.03125 C 8.96875 -1.945312 8.679688 -1.113281 8.109375 -0.53125 C 7.546875 0.0390625 6.722656 0.328125 5.640625 0.328125 Z M 8.96875 -14.203125 L 13.375 -14.203125 C 16 -14.203125 17.3125 -15.238281 17.3125 -17.3125 C 17.3125 -19.363281 16 -20.390625 13.375 -20.390625 L 8.96875 -20.390625 Z M 8.96875 -14.203125 "/></g></g></g><g fill="#e5dff1" fill-opacity="1"><g transform="translate(52.362927, 79.199729)"><g><path d="M 11.5625 0.390625 C 9.394531 0.390625 7.519531 0.015625 5.9375 -0.734375 C 4.363281 -1.492188 3.15625 -2.570312 2.3125 -3.96875 C 1.46875 -5.375 1.046875 -7.03125 1.046875 -8.9375 C 1.046875 -10.738281 1.445312 -12.335938 2.25 -13.734375 C 3.0625 -15.140625 4.171875 -16.234375 5.578125 -17.015625 C 6.992188 -17.796875 8.601562 -18.1875 10.40625 -18.1875 C 12.195312 -18.1875 13.75 -17.8125 15.0625 -17.0625 C 16.375 -16.3125 17.382812 -15.242188 18.09375 -13.859375 C 18.800781 -12.472656 19.15625 -10.851562 19.15625 -9 C 19.15625 -8.0625 18.601562 -7.59375 17.5 -7.59375 L 7.1875 -7.59375 C 7.40625 -6.4375 7.890625 -5.601562 8.640625 -5.09375 C 9.390625 -4.59375 10.425781 -4.34375 11.75 -4.34375 C 12.257812 -4.34375 12.863281 -4.398438 13.5625 -4.515625 C 14.257812 -4.640625 14.921875 -4.832031 15.546875 -5.09375 C 16.316406 -5.382812 16.96875 -5.390625 17.5 -5.109375 C 18.03125 -4.835938 18.382812 -4.414062 18.5625 -3.84375 C 18.75 -3.28125 18.726562 -2.703125 18.5 -2.109375 C 18.269531 -1.523438 17.816406 -1.078125 17.140625 -0.765625 C 16.296875 -0.347656 15.394531 -0.0507812 14.4375 0.125 C 13.488281 0.300781 12.53125 0.390625 11.5625 0.390625 Z M 10.703125 -14.03125 C 9.734375 -14.03125 8.941406 -13.738281 8.328125 -13.15625 C 7.710938 -12.582031 7.320312 -11.738281 7.15625 -10.625 L 13.890625 -10.625 C 13.816406 -11.757812 13.507812 -12.609375 12.96875 -13.171875 C 12.425781 -13.742188 11.671875 -14.03125 10.703125 -14.03125 Z M 10.703125 -14.03125 "/></g></g></g><g fill="#e5dff1" fill-opacity="1"><g transform="translate(72.424774, 79.199729)"><g><path d="M 9.765625 0.328125 C 8.097656 0.328125 6.890625 -0.515625 6.140625 -2.203125 L 0.96875 -14.03125 C 0.519531 -15.113281 0.519531 -16.0625 0.96875 -16.875 C 1.425781 -17.695312 2.359375 -18.109375 3.765625 -18.109375 C 4.503906 -18.109375 5.113281 -17.929688 5.59375 -17.578125 C 6.082031 -17.234375 6.519531 -16.554688 6.90625 -15.546875 L 9.9375 -7.703125 L 13.15625 -15.578125 C 13.539062 -16.566406 13.972656 -17.234375 14.453125 -17.578125 C 14.941406 -17.929688 15.609375 -18.109375 16.453125 -18.109375 C 17.148438 -18.109375 17.722656 -17.921875 18.171875 -17.546875 C 18.617188 -17.179688 18.894531 -16.679688 19 -16.046875 C 19.101562 -15.421875 18.988281 -14.75 18.65625 -14.03125 L 13.375 -2.171875 C 12.65625 -0.503906 11.453125 0.328125 9.765625 0.328125 Z M 9.765625 0.328125 "/></g></g></g><g fill="#e5dff1" fill-opacity="1"><g transform="translate(92.016703, 79.199729)"><g><path d="M 5.0625 -20.6875 C 3.925781 -20.6875 3.050781 -20.945312 2.4375 -21.46875 C 1.820312 -22 1.515625 -22.773438 1.515625 -23.796875 C 1.515625 -24.773438 1.820312 -25.53125 2.4375 -26.0625 C 3.050781 -26.59375 3.925781 -26.859375 5.0625 -26.859375 C 7.445312 -26.859375 8.640625 -25.835938 8.640625 -23.796875 C 8.640625 -22.773438 8.332031 -22 7.71875 -21.46875 C 7.101562 -20.945312 6.21875 -20.6875 5.0625 -20.6875 Z M 5.0625 0.328125 C 4.019531 0.328125 3.226562 0.0234375 2.6875 -0.578125 C 2.144531 -1.179688 1.875 -2.050781 1.875 -3.1875 L 1.875 -14.609375 C 1.875 -15.742188 2.144531 -16.609375 2.6875 -17.203125 C 3.226562 -17.804688 4.019531 -18.109375 5.0625 -18.109375 C 6.09375 -18.109375 6.890625 -17.804688 7.453125 -17.203125 C 8.023438 -16.609375 8.3125 -15.742188 8.3125 -14.609375 L 8.3125 -3.1875 C 8.3125 -2.050781 8.035156 -1.179688 7.484375 -0.578125 C 6.929688 0.0234375 6.125 0.328125 5.0625 0.328125 Z M 5.0625 0.328125 "/></g></g></g><g fill="#e5dff1" fill-opacity="1"><g transform="translate(102.174143, 79.199729)"><g><path d="M 11.5625 0.390625 C 9.394531 0.390625 7.519531 0.015625 5.9375 -0.734375 C 4.363281 -1.492188 3.15625 -2.570312 2.3125 -3.96875 C 1.46875 -5.375 1.046875 -7.03125 1.046875 -8.9375 C 1.046875 -10.738281 1.445312 -12.335938 2.25 -13.734375 C 3.0625 -15.140625 4.171875 -16.234375 5.578125 -17.015625 C 6.992188 -17.796875 8.601562 -18.1875 10.40625 -18.1875 C 12.195312 -18.1875 13.75 -17.8125 15.0625 -17.0625 C 16.375 -16.3125 17.382812 -15.242188 18.09375 -13.859375 C 18.800781 -12.472656 19.15625 -10.851562 19.15625 -9 C 19.15625 -8.0625 18.601562 -7.59375 17.5 -7.59375 L 7.1875 -7.59375 C 7.40625 -6.4375 7.890625 -5.601562 8.640625 -5.09375 C 9.390625 -4.59375 10.425781 -4.34375 11.75 -4.34375 C 12.257812 -4.34375 12.863281 -4.398438 13.5625 -4.515625 C 14.257812 -4.640625 14.921875 -4.832031 15.546875 -5.09375 C 16.316406 -5.382812 16.96875 -5.390625 17.5 -5.109375 C 18.03125 -4.835938 18.382812 -4.414062 18.5625 -3.84375 C 18.75 -3.28125 18.726562 -2.703125 18.5 -2.109375 C 18.269531 -1.523438 17.816406 -1.078125 17.140625 -0.765625 C 16.296875 -0.347656 15.394531 -0.0507812 14.4375 0.125 C 13.488281 0.300781 12.53125 0.390625 11.5625 0.390625 Z M 10.703125 -14.03125 C 9.734375 -14.03125 8.941406 -13.738281 8.328125 -13.15625 C 7.710938 -12.582031 7.320312 -11.738281 7.15625 -10.625 L 13.890625 -10.625 C 13.816406 -11.757812 13.507812 -12.609375 12.96875 -13.171875 C 12.425781 -13.742188 11.671875 -14.03125 10.703125 -14.03125 Z M 10.703125 -14.03125 "/></g></g></g><g fill="#e5dff1" fill-opacity="1"><g transform="translate(122.235989, 79.199729)"><g><path d="M 9.625 0.328125 C 7.9375 0.328125 6.738281 -0.492188 6.03125 -2.140625 L 1.125 -14.03125 C 0.632812 -15.132812 0.617188 -16.085938 1.078125 -16.890625 C 1.535156 -17.703125 2.414062 -18.109375 3.71875 -18.109375 C 4.46875 -18.109375 5.078125 -17.929688 5.546875 -17.578125 C 6.015625 -17.234375 6.457031 -16.554688 6.875 -15.546875 L 9.9375 -7.484375 L 13.234375 -16.234375 C 13.710938 -17.484375 14.582031 -18.109375 15.84375 -18.109375 C 16.539062 -18.109375 17.09375 -17.953125 17.5 -17.640625 C 17.90625 -17.328125 18.226562 -16.859375 18.46875 -16.234375 L 21.796875 -7.296875 L 24.984375 -15.765625 C 25.316406 -16.660156 25.75 -17.273438 26.28125 -17.609375 C 26.8125 -17.941406 27.378906 -18.109375 27.984375 -18.109375 C 29.210938 -18.109375 30.003906 -17.691406 30.359375 -16.859375 C 30.722656 -16.035156 30.679688 -15.082031 30.234375 -14 L 25.34375 -2.171875 C 24.644531 -0.503906 23.460938 0.328125 21.796875 0.328125 C 20.085938 0.328125 18.894531 -0.503906 18.21875 -2.171875 L 15.625 -8.75 L 13.125 -2.234375 C 12.445312 -0.523438 11.28125 0.328125 9.625 0.328125 Z M 9.625 0.328125 "/></g></g></g><g fill="#e5dff1" fill-opacity="1"><g transform="translate(153.611995, 79.199729)"><g/></g></g><g fill="#e5dff1" fill-opacity="1"><g transform="translate(163.950169, 79.199729)"><g><path d="M 11.78125 0.390625 C 10.3125 0.390625 8.800781 0.242188 7.25 -0.046875 C 5.695312 -0.347656 4.363281 -0.78125 3.25 -1.34375 C 2.601562 -1.65625 2.144531 -2.078125 1.875 -2.609375 C 1.613281 -3.140625 1.519531 -3.6875 1.59375 -4.25 C 1.664062 -4.8125 1.867188 -5.316406 2.203125 -5.765625 C 2.546875 -6.210938 2.992188 -6.515625 3.546875 -6.671875 C 4.097656 -6.828125 4.722656 -6.75 5.421875 -6.4375 C 6.335938 -5.976562 7.375 -5.632812 8.53125 -5.40625 C 9.6875 -5.175781 10.769531 -5.0625 11.78125 -5.0625 C 13.375 -5.0625 14.488281 -5.269531 15.125 -5.6875 C 15.769531 -6.113281 16.09375 -6.640625 16.09375 -7.265625 C 16.09375 -7.816406 15.867188 -8.257812 15.421875 -8.59375 C 14.972656 -8.9375 14.179688 -9.226562 13.046875 -9.46875 L 8.828125 -10.375 C 4.242188 -11.363281 1.953125 -13.765625 1.953125 -17.578125 C 1.953125 -19.234375 2.40625 -20.6875 3.3125 -21.9375 C 4.21875 -23.195312 5.476562 -24.171875 7.09375 -24.859375 C 8.707031 -25.546875 10.585938 -25.890625 12.734375 -25.890625 C 13.984375 -25.890625 15.25 -25.75 16.53125 -25.46875 C 17.820312 -25.195312 18.941406 -24.78125 19.890625 -24.21875 C 20.609375 -23.832031 21.0625 -23.304688 21.25 -22.640625 C 21.445312 -21.984375 21.425781 -21.34375 21.1875 -20.71875 C 20.945312 -20.09375 20.519531 -19.632812 19.90625 -19.34375 C 19.289062 -19.050781 18.515625 -19.097656 17.578125 -19.484375 C 16.847656 -19.796875 16.050781 -20.03125 15.1875 -20.1875 C 14.320312 -20.34375 13.476562 -20.421875 12.65625 -20.421875 C 11.300781 -20.421875 10.257812 -20.1875 9.53125 -19.71875 C 8.8125 -19.25 8.453125 -18.640625 8.453125 -17.890625 C 8.453125 -17.367188 8.671875 -16.9375 9.109375 -16.59375 C 9.546875 -16.257812 10.316406 -15.972656 11.421875 -15.734375 L 15.625 -14.828125 C 20.269531 -13.835938 22.59375 -11.5 22.59375 -7.8125 C 22.59375 -6.144531 22.144531 -4.695312 21.25 -3.46875 C 20.363281 -2.238281 19.113281 -1.285156 17.5 -0.609375 C 15.882812 0.0546875 13.976562 0.390625 11.78125 0.390625 Z M 11.78125 0.390625 "/></g></g></g><g fill="#e5dff1" fill-opacity="1"><g transform="translate(187.482174, 79.199729)"><g><path d="M 7.046875 6.828125 C 6.296875 6.828125 5.6875 6.632812 5.21875 6.25 C 4.75 5.863281 4.46875 5.363281 4.375 4.75 C 4.28125 4.132812 4.390625 3.46875 4.703125 2.75 L 6.546875 -1.234375 L 0.9375 -14.03125 C 0.457031 -15.113281 0.457031 -16.0625 0.9375 -16.875 C 1.414062 -17.695312 2.359375 -18.109375 3.765625 -18.109375 C 4.503906 -18.109375 5.113281 -17.929688 5.59375 -17.578125 C 6.082031 -17.234375 6.519531 -16.554688 6.90625 -15.546875 L 9.9375 -7.703125 L 13.125 -15.578125 C 13.507812 -16.566406 13.945312 -17.234375 14.4375 -17.578125 C 14.9375 -17.929688 15.609375 -18.109375 16.453125 -18.109375 C 17.515625 -18.109375 18.265625 -17.695312 18.703125 -16.875 C 19.148438 -16.0625 19.132812 -15.113281 18.65625 -14.03125 L 10.453125 4.40625 C 10.015625 5.351562 9.535156 5.992188 9.015625 6.328125 C 8.503906 6.660156 7.847656 6.828125 7.046875 6.828125 Z M 7.046875 6.828125 "/></g></g></g><g fill="#e5dff1" fill-opacity="1"><g transform="translate(207.037953, 79.199729)"><g><path d="M 8.96875 0.390625 C 7.882812 0.390625 6.796875 0.304688 5.703125 0.140625 C 4.617188 -0.0234375 3.632812 -0.300781 2.75 -0.6875 C 2 -0.976562 1.507812 -1.398438 1.28125 -1.953125 C 1.050781 -2.503906 1.023438 -3.054688 1.203125 -3.609375 C 1.390625 -4.171875 1.722656 -4.59375 2.203125 -4.875 C 2.679688 -5.164062 3.257812 -5.191406 3.9375 -4.953125 C 4.925781 -4.585938 5.828125 -4.328125 6.640625 -4.171875 C 7.460938 -4.015625 8.25 -3.9375 9 -3.9375 C 9.894531 -3.9375 10.535156 -4.0625 10.921875 -4.3125 C 11.304688 -4.570312 11.5 -4.90625 11.5 -5.3125 C 11.5 -5.675781 11.367188 -5.945312 11.109375 -6.125 C 10.859375 -6.3125 10.503906 -6.453125 10.046875 -6.546875 L 6.03125 -7.1875 C 4.539062 -7.4375 3.382812 -7.984375 2.5625 -8.828125 C 1.75 -9.671875 1.34375 -10.765625 1.34375 -12.109375 C 1.34375 -13.367188 1.691406 -14.445312 2.390625 -15.34375 C 3.085938 -16.25 4.0625 -16.945312 5.3125 -17.4375 C 6.5625 -17.9375 8 -18.1875 9.625 -18.1875 C 10.707031 -18.1875 11.691406 -18.101562 12.578125 -17.9375 C 13.472656 -17.769531 14.34375 -17.492188 15.1875 -17.109375 C 15.832031 -16.835938 16.242188 -16.425781 16.421875 -15.875 C 16.609375 -15.320312 16.597656 -14.769531 16.390625 -14.21875 C 16.191406 -13.675781 15.84375 -13.265625 15.34375 -12.984375 C 14.851562 -12.710938 14.257812 -12.710938 13.5625 -12.984375 C 12.757812 -13.296875 12.050781 -13.523438 11.4375 -13.671875 C 10.820312 -13.816406 10.25 -13.890625 9.71875 -13.890625 C 8.738281 -13.890625 8.039062 -13.75 7.625 -13.46875 C 7.21875 -13.1875 7.015625 -12.851562 7.015625 -12.46875 C 7.015625 -11.820312 7.460938 -11.425781 8.359375 -11.28125 L 12.359375 -10.59375 C 13.898438 -10.351562 15.085938 -9.828125 15.921875 -9.015625 C 16.753906 -8.210938 17.171875 -7.125 17.171875 -5.75 C 17.171875 -3.789062 16.421875 -2.273438 14.921875 -1.203125 C 13.429688 -0.140625 11.445312 0.390625 8.96875 0.390625 Z M 8.96875 0.390625 "/></g></g></g><g fill="#e5dff1" fill-opacity="1"><g transform="translate(224.967109, 79.199729)"><g><path d="M 11.203125 0.390625 C 8.503906 0.390625 6.503906 -0.234375 5.203125 -1.484375 C 3.898438 -2.734375 3.25 -4.625 3.25 -7.15625 L 3.25 -13.046875 L 2.03125 -13.046875 C 0.414062 -13.046875 -0.390625 -13.84375 -0.390625 -15.4375 C -0.390625 -17 0.414062 -17.78125 2.03125 -17.78125 L 3.25 -17.78125 L 3.25 -20.03125 C 3.25 -21.09375 3.523438 -21.898438 4.078125 -22.453125 C 4.640625 -23.003906 5.4375 -23.28125 6.46875 -23.28125 C 8.613281 -23.28125 9.6875 -22.195312 9.6875 -20.03125 L 9.6875 -17.78125 L 12.65625 -17.78125 C 14.289062 -17.78125 15.109375 -17 15.109375 -15.4375 C 15.109375 -13.84375 14.289062 -13.046875 12.65625 -13.046875 L 9.6875 -13.046875 L 9.6875 -7.375 C 9.6875 -5.632812 10.566406 -4.765625 12.328125 -4.765625 C 12.660156 -4.765625 12.984375 -4.800781 13.296875 -4.875 C 13.617188 -4.945312 13.910156 -4.984375 14.171875 -4.984375 C 14.554688 -5.015625 14.867188 -4.898438 15.109375 -4.640625 C 15.347656 -4.390625 15.46875 -3.816406 15.46875 -2.921875 C 15.46875 -2.203125 15.359375 -1.59375 15.140625 -1.09375 C 14.929688 -0.601562 14.550781 -0.25 14 -0.03125 C 13.65625 0.0820312 13.191406 0.179688 12.609375 0.265625 C 12.035156 0.347656 11.566406 0.390625 11.203125 0.390625 Z M 11.203125 0.390625 "/></g></g></g><g fill="#e5dff1" fill-opacity="1"><g transform="translate(240.365928, 79.199729)"><g><path d="M 11.5625 0.390625 C 9.394531 0.390625 7.519531 0.015625 5.9375 -0.734375 C 4.363281 -1.492188 3.15625 -2.570312 2.3125 -3.96875 C 1.46875 -5.375 1.046875 -7.03125 1.046875 -8.9375 C 1.046875 -10.738281 1.445312 -12.335938 2.25 -13.734375 C 3.0625 -15.140625 4.171875 -16.234375 5.578125 -17.015625 C 6.992188 -17.796875 8.601562 -18.1875 10.40625 -18.1875 C 12.195312 -18.1875 13.75 -17.8125 15.0625 -17.0625 C 16.375 -16.3125 17.382812 -15.242188 18.09375 -13.859375 C 18.800781 -12.472656 19.15625 -10.851562 19.15625 -9 C 19.15625 -8.0625 18.601562 -7.59375 17.5 -7.59375 L 7.1875 -7.59375 C 7.40625 -6.4375 7.890625 -5.601562 8.640625 -5.09375 C 9.390625 -4.59375 10.425781 -4.34375 11.75 -4.34375 C 12.257812 -4.34375 12.863281 -4.398438 13.5625 -4.515625 C 14.257812 -4.640625 14.921875 -4.832031 15.546875 -5.09375 C 16.316406 -5.382812 16.96875 -5.390625 17.5 -5.109375 C 18.03125 -4.835938 18.382812 -4.414062 18.5625 -3.84375 C 18.75 -3.28125 18.726562 -2.703125 18.5 -2.109375 C 18.269531 -1.523438 17.816406 -1.078125 17.140625 -0.765625 C 16.296875 -0.347656 15.394531 -0.0507812 14.4375 0.125 C 13.488281 0.300781 12.53125 0.390625 11.5625 0.390625 Z M 10.703125 -14.03125 C 9.734375 -14.03125 8.941406 -13.738281 8.328125 -13.15625 C 7.710938 -12.582031 7.320312 -11.738281 7.15625 -10.625 L 13.890625 -10.625 C 13.816406 -11.757812 13.507812 -12.609375 12.96875 -13.171875 C 12.425781 -13.742188 11.671875 -14.03125 10.703125 -14.03125 Z M 10.703125 -14.03125 "/></g></g></g><g fill="#e5dff1" fill-opacity="1"><g transform="translate(260.427775, 79.199729)"><g><path d="M 5.140625 0.328125 C 4.097656 0.328125 3.304688 0.0507812 2.765625 -0.5 C 2.222656 -1.0625 1.953125 -1.867188 1.953125 -2.921875 L 1.953125 -14.890625 C 1.953125 -17.035156 3 -18.109375 5.09375 -18.109375 C 7 -18.109375 8.035156 -17.191406 8.203125 -15.359375 C 8.734375 -16.234375 9.460938 -16.921875 10.390625 -17.421875 C 11.316406 -17.929688 12.394531 -18.1875 13.625 -18.1875 C 14.832031 -18.1875 15.875 -17.921875 16.75 -17.390625 C 17.632812 -16.859375 18.304688 -16.039062 18.765625 -14.9375 C 19.367188 -15.96875 20.1875 -16.765625 21.21875 -17.328125 C 22.257812 -17.898438 23.40625 -18.1875 24.65625 -18.1875 C 26.726562 -18.1875 28.265625 -17.566406 29.265625 -16.328125 C 30.265625 -15.085938 30.765625 -13.148438 30.765625 -10.515625 L 30.765625 -2.921875 C 30.765625 -1.867188 30.476562 -1.0625 29.90625 -0.5 C 29.34375 0.0507812 28.546875 0.328125 27.515625 0.328125 C 26.503906 0.328125 25.71875 0.0507812 25.15625 -0.5 C 24.601562 -1.0625 24.328125 -1.867188 24.328125 -2.921875 L 24.328125 -10.34375 C 24.328125 -11.375 24.171875 -12.117188 23.859375 -12.578125 C 23.546875 -13.035156 23.03125 -13.265625 22.3125 -13.265625 C 21.414062 -13.265625 20.734375 -12.953125 20.265625 -12.328125 C 19.796875 -11.703125 19.5625 -10.8125 19.5625 -9.65625 L 19.5625 -2.921875 C 19.5625 -1.867188 19.28125 -1.0625 18.71875 -0.5 C 18.164062 0.0507812 17.375 0.328125 16.34375 0.328125 C 15.300781 0.328125 14.503906 0.0507812 13.953125 -0.5 C 13.398438 -1.0625 13.125 -1.867188 13.125 -2.921875 L 13.125 -10.34375 C 13.125 -11.375 12.96875 -12.117188 12.65625 -12.578125 C 12.34375 -13.035156 11.820312 -13.265625 11.09375 -13.265625 C 10.226562 -13.265625 9.5625 -12.953125 9.09375 -12.328125 C 8.625 -11.703125 8.390625 -10.8125 8.390625 -9.65625 L 8.390625 -2.921875 C 8.390625 -0.753906 7.304688 0.328125 5.140625 0.328125 Z M 5.140625 0.328125 "/></g></g></g><g fill="#c5a8ff" fill-opacity="1"><g transform="translate(244.058525, 105.041977)"><g><path d="M 3.484375 0.171875 C 2.578125 0.171875 2.125 -0.289062 2.125 -1.21875 L 2.125 -8.546875 L 1.125 -8.546875 C 0.40625 -8.546875 0.046875 -8.890625 0.046875 -9.578125 C 0.046875 -10.253906 0.40625 -10.59375 1.125 -10.59375 L 2.125 -10.59375 L 2.125 -10.609375 C 2.125 -12.097656 2.5 -13.210938 3.25 -13.953125 C 4 -14.703125 5.082031 -15.140625 6.5 -15.265625 L 7.234375 -15.328125 C 7.609375 -15.359375 7.878906 -15.28125 8.046875 -15.09375 C 8.222656 -14.90625 8.316406 -14.675781 8.328125 -14.40625 C 8.335938 -14.144531 8.269531 -13.910156 8.125 -13.703125 C 7.976562 -13.492188 7.769531 -13.375 7.5 -13.34375 L 7.1875 -13.3125 C 6.363281 -13.257812 5.765625 -13.050781 5.390625 -12.6875 C 5.015625 -12.332031 4.828125 -11.785156 4.828125 -11.046875 L 4.828125 -10.59375 L 6.671875 -10.59375 C 7.390625 -10.59375 7.75 -10.253906 7.75 -9.578125 C 7.75 -8.890625 7.390625 -8.546875 6.671875 -8.546875 L 4.828125 -8.546875 L 4.828125 -1.21875 C 4.828125 -0.289062 4.378906 0.171875 3.484375 0.171875 Z M 3.484375 0.171875 "/></g></g></g><g fill="#c5a8ff" fill-opacity="1"><g transform="translate(251.937576, 105.041977)"><g><path d="M 6.234375 0.21875 C 5.140625 0.21875 4.1875 -0.00390625 3.375 -0.453125 C 2.570312 -0.898438 1.945312 -1.535156 1.5 -2.359375 C 1.050781 -3.191406 0.828125 -4.175781 0.828125 -5.3125 C 0.828125 -6.4375 1.050781 -7.410156 1.5 -8.234375 C 1.945312 -9.054688 2.570312 -9.691406 3.375 -10.140625 C 4.1875 -10.585938 5.140625 -10.8125 6.234375 -10.8125 C 7.335938 -10.8125 8.289062 -10.585938 9.09375 -10.140625 C 9.90625 -9.691406 10.535156 -9.054688 10.984375 -8.234375 C 11.429688 -7.410156 11.65625 -6.4375 11.65625 -5.3125 C 11.65625 -4.175781 11.429688 -3.191406 10.984375 -2.359375 C 10.535156 -1.535156 9.90625 -0.898438 9.09375 -0.453125 C 8.289062 -0.00390625 7.335938 0.21875 6.234375 0.21875 Z M 6.234375 -1.84375 C 7.046875 -1.84375 7.695312 -2.132812 8.1875 -2.71875 C 8.675781 -3.300781 8.921875 -4.164062 8.921875 -5.3125 C 8.921875 -6.457031 8.675781 -7.316406 8.1875 -7.890625 C 7.695312 -8.460938 7.046875 -8.75 6.234375 -8.75 C 5.429688 -8.75 4.78125 -8.460938 4.28125 -7.890625 C 3.789062 -7.316406 3.546875 -6.457031 3.546875 -5.3125 C 3.546875 -4.164062 3.789062 -3.300781 4.28125 -2.71875 C 4.78125 -2.132812 5.429688 -1.84375 6.234375 -1.84375 Z M 6.234375 -1.84375 "/></g></g></g><g fill="#c5a8ff" fill-opacity="1"><g transform="translate(264.40553, 105.041977)"><g><path d="M 2.796875 0.171875 C 1.867188 0.171875 1.40625 -0.289062 1.40625 -1.21875 L 1.40625 -9.40625 C 1.40625 -10.3125 1.847656 -10.765625 2.734375 -10.765625 C 3.609375 -10.765625 4.046875 -10.3125 4.046875 -9.40625 L 4.046875 -8.734375 C 4.566406 -9.972656 5.679688 -10.664062 7.390625 -10.8125 C 8.003906 -10.882812 8.347656 -10.53125 8.421875 -9.75 C 8.492188 -8.976562 8.117188 -8.550781 7.296875 -8.46875 L 6.828125 -8.421875 C 5.046875 -8.253906 4.15625 -7.347656 4.15625 -5.703125 L 4.15625 -1.21875 C 4.15625 -0.289062 3.703125 0.171875 2.796875 0.171875 Z M 2.796875 0.171875 "/></g></g></g><g fill="#c5a8ff" fill-opacity="1"><g transform="translate(272.890673, 105.041977)"><g/></g></g><g fill="#c5a8ff" fill-opacity="1"><g transform="translate(278.756678, 105.041977)"><g><path d="M 3.140625 0 C 2.160156 0 1.671875 -0.488281 1.671875 -1.46875 L 1.671875 -13.796875 C 1.671875 -14.773438 2.160156 -15.265625 3.140625 -15.265625 L 8.34375 -15.265625 C 9.9375 -15.265625 11.175781 -14.914062 12.0625 -14.21875 C 12.945312 -13.519531 13.390625 -12.546875 13.390625 -11.296875 C 13.390625 -10.472656 13.175781 -9.765625 12.75 -9.171875 C 12.332031 -8.585938 11.753906 -8.160156 11.015625 -7.890625 C 11.890625 -7.640625 12.566406 -7.207031 13.046875 -6.59375 C 13.523438 -5.976562 13.765625 -5.203125 13.765625 -4.265625 C 13.765625 -2.910156 13.304688 -1.859375 12.390625 -1.109375 C 11.472656 -0.367188 10.203125 0 8.578125 0 Z M 4.328125 -8.796875 L 7.859375 -8.796875 C 9.753906 -8.796875 10.703125 -9.523438 10.703125 -10.984375 C 10.703125 -12.441406 9.753906 -13.171875 7.859375 -13.171875 L 4.328125 -13.171875 Z M 4.328125 -2.09375 L 8.234375 -2.09375 C 10.140625 -2.09375 11.09375 -2.859375 11.09375 -4.390625 C 11.09375 -5.921875 10.140625 -6.6875 8.234375 -6.6875 L 4.328125 -6.6875 Z M 4.328125 -2.09375 "/></g></g></g><g fill="#c5a8ff" fill-opacity="1"><g transform="translate(293.648957, 105.041977)"><g><path d="M 5.234375 0.21875 C 2.640625 0.21875 1.34375 -1.238281 1.34375 -4.15625 L 1.34375 -9.40625 C 1.34375 -10.3125 1.789062 -10.765625 2.6875 -10.765625 C 3.59375 -10.765625 4.046875 -10.3125 4.046875 -9.40625 L 4.046875 -4.109375 C 4.046875 -3.359375 4.195312 -2.800781 4.5 -2.4375 C 4.800781 -2.082031 5.285156 -1.90625 5.953125 -1.90625 C 6.671875 -1.90625 7.257812 -2.15625 7.71875 -2.65625 C 8.1875 -3.15625 8.421875 -3.816406 8.421875 -4.640625 L 8.421875 -9.40625 C 8.421875 -10.3125 8.867188 -10.765625 9.765625 -10.765625 C 10.671875 -10.765625 11.125 -10.3125 11.125 -9.40625 L 11.125 -1.21875 C 11.125 -0.289062 10.6875 0.171875 9.8125 0.171875 C 8.925781 0.171875 8.484375 -0.289062 8.484375 -1.21875 L 8.484375 -1.578125 C 7.773438 -0.378906 6.691406 0.21875 5.234375 0.21875 Z M 5.234375 0.21875 "/></g></g></g><g fill="#c5a8ff" fill-opacity="1"><g transform="translate(306.181845, 105.041977)"><g><path d="M 5.03125 0.21875 C 2.613281 0.21875 1.40625 -1.128906 1.40625 -3.828125 L 1.40625 -14.078125 C 1.40625 -14.984375 1.851562 -15.4375 2.75 -15.4375 C 3.65625 -15.4375 4.109375 -14.984375 4.109375 -14.078125 L 4.109375 -3.96875 C 4.109375 -2.664062 4.648438 -2.015625 5.734375 -2.015625 C 5.847656 -2.015625 5.957031 -2.015625 6.0625 -2.015625 C 6.164062 -2.023438 6.265625 -2.039062 6.359375 -2.0625 C 6.566406 -2.082031 6.707031 -2.023438 6.78125 -1.890625 C 6.851562 -1.753906 6.890625 -1.476562 6.890625 -1.0625 C 6.890625 -0.695312 6.816406 -0.410156 6.671875 -0.203125 C 6.523438 -0.00390625 6.285156 0.113281 5.953125 0.15625 C 5.648438 0.195312 5.34375 0.21875 5.03125 0.21875 Z M 5.03125 0.21875 "/></g></g></g><g fill="#c5a8ff" fill-opacity="1"><g transform="translate(313.086846, 105.041977)"><g><path d="M 5.28125 0.21875 C 4.664062 0.21875 4.007812 0.148438 3.3125 0.015625 C 2.625 -0.109375 2.003906 -0.332031 1.453125 -0.65625 C 1.148438 -0.820312 0.960938 -1.03125 0.890625 -1.28125 C 0.816406 -1.539062 0.828125 -1.78125 0.921875 -2 C 1.015625 -2.226562 1.171875 -2.390625 1.390625 -2.484375 C 1.617188 -2.585938 1.882812 -2.566406 2.1875 -2.421875 C 2.757812 -2.148438 3.296875 -1.957031 3.796875 -1.84375 C 4.304688 -1.738281 4.8125 -1.6875 5.3125 -1.6875 C 6 -1.6875 6.507812 -1.804688 6.84375 -2.046875 C 7.1875 -2.285156 7.359375 -2.597656 7.359375 -2.984375 C 7.359375 -3.585938 6.910156 -3.976562 6.015625 -4.15625 L 3.859375 -4.5625 C 2.023438 -4.914062 1.109375 -5.867188 1.109375 -7.421875 C 1.109375 -8.117188 1.296875 -8.71875 1.671875 -9.21875 C 2.054688 -9.726562 2.585938 -10.117188 3.265625 -10.390625 C 3.941406 -10.671875 4.722656 -10.8125 5.609375 -10.8125 C 6.878906 -10.8125 8.015625 -10.53125 9.015625 -9.96875 C 9.285156 -9.820312 9.445312 -9.617188 9.5 -9.359375 C 9.550781 -9.109375 9.519531 -8.867188 9.40625 -8.640625 C 9.300781 -8.421875 9.128906 -8.265625 8.890625 -8.171875 C 8.660156 -8.078125 8.394531 -8.101562 8.09375 -8.25 C 7.644531 -8.476562 7.210938 -8.644531 6.796875 -8.75 C 6.390625 -8.851562 6 -8.90625 5.625 -8.90625 C 4.914062 -8.90625 4.390625 -8.78125 4.046875 -8.53125 C 3.710938 -8.289062 3.546875 -7.96875 3.546875 -7.5625 C 3.546875 -6.925781 3.957031 -6.535156 4.78125 -6.390625 L 6.953125 -5.984375 C 7.890625 -5.804688 8.597656 -5.484375 9.078125 -5.015625 C 9.566406 -4.554688 9.8125 -3.9375 9.8125 -3.15625 C 9.8125 -2.101562 9.398438 -1.273438 8.578125 -0.671875 C 7.753906 -0.078125 6.65625 0.21875 5.28125 0.21875 Z M 5.28125 0.21875 "/></g></g></g><g fill="#c5a8ff" fill-opacity="1"><g transform="translate(323.649981, 105.041977)"><g><path d="M 5.234375 0.21875 C 2.640625 0.21875 1.34375 -1.238281 1.34375 -4.15625 L 1.34375 -9.40625 C 1.34375 -10.3125 1.789062 -10.765625 2.6875 -10.765625 C 3.59375 -10.765625 4.046875 -10.3125 4.046875 -9.40625 L 4.046875 -4.109375 C 4.046875 -3.359375 4.195312 -2.800781 4.5 -2.4375 C 4.800781 -2.082031 5.285156 -1.90625 5.953125 -1.90625 C 6.671875 -1.90625 7.257812 -2.15625 7.71875 -2.65625 C 8.1875 -3.15625 8.421875 -3.816406 8.421875 -4.640625 L 8.421875 -9.40625 C 8.421875 -10.3125 8.867188 -10.765625 9.765625 -10.765625 C 10.671875 -10.765625 11.125 -10.3125 11.125 -9.40625 L 11.125 -1.21875 C 11.125 -0.289062 10.6875 0.171875 9.8125 0.171875 C 8.925781 0.171875 8.484375 -0.289062 8.484375 -1.21875 L 8.484375 -1.578125 C 7.773438 -0.378906 6.691406 0.21875 5.234375 0.21875 Z M 5.234375 0.21875 "/></g></g></g></svg>