<svg width="22" height="22" fill="none" stroke-linecap="round" stroke-linejoin="round" stroke-width="1.5" viewBox="0 0 24 24" xmlns="http://www.w3.org/2000/svg">
  <path d="M7 9a3.5 3.5 0 1 0 0-7 3.5 3.5 0 0 0 0 7Z"></path>
  <path d="M17 9a3.5 3.5 0 1 0 0-7 3.5 3.5 0 0 0 0 7Z"></path>
  <path d="M2 22v-4.5c0-2.761 1.885-5 4.21-5h2.527c2.042 0 3.263 2.013 3.263 2.013"></path>
  <path d="M22 22v-4.5c0-2.761-1.908-5-4.26-5h-2.557c-1.98 0-3.187 2.013-3.183 2.013"></path>
  <path d="M5.5 20H19"></path>
  <path d="m17.148 18.129.62.623L19.007 20l-1.24 1.28-.62.64"></path>
  <path d="m7.165 18.116-.63.627-1.259 1.254 1.26 1.274.629.637"></path>
</svg>